<?xml version="1.0" encoding="UTF-8"?><svg id="_レイヤー_2" xmlns="http://www.w3.org/2000/svg" viewBox="0 0 52.365 62.843"><defs><style>.cls-1{fill:#1e88e5;}</style></defs><g id="_レイヤー_1-2"><path class="cls-1" d="M40.277,5.954C35.227,1.657,28.884-.041,22.349,0,4.569.117-4.025,23.652,1.822,38.213c2.253,5.609,5.91,10.53,10.146,14.788,1.556,1.563,3.136,3.12,4.717,4.659,1.414,1.376,3.137,3.504,6.346,5.184-.001-.002-5.014-9.384-5.254-9.991-.771-1.958-1.484-3.983-1.736-6.083-.144-1.199.491-4.705-.447-5.57,2.892,2.666,6.283,4.84,10.028,6.353,9.743,3.936,20.982.081,25.097-9.655,4.802-11.362-1.582-24.4-10.443-31.942ZM37.778,35.442c-6.72,3.883-16.13-2.148-18.79-8.481-2.819-6.712,3.226-13.888,9.637-14.646,9.613-1.138,16.701,11.278,12.498,19.474-.871,1.698-2.022,2.889-3.345,3.653Z"/><path class="cls-1" d="M43.049,26.384c-.836,4.121-4.645,6.826-8.508,6.042-3.863-.783-6.317-4.759-5.481-8.879.836-4.121,4.645-6.826,8.508-6.042,3.863.783,6.317,4.759,5.482,8.88Z"/></g></svg>